<svg width="28" height="28" viewBox="0 0 28 28" fill="none" xmlns="http://www.w3.org/2000/svg">
<g id="clarity:arrow-line" clip-path="url(#clip0_367_7538)">
<path id="Vector" d="M12.1412 6.48659L4.66675 13.9999L12.1412 21.5133C12.2087 21.6019 12.2945 21.675 12.3927 21.7276C12.4909 21.7802 12.5993 21.8112 12.7105 21.8182C12.8217 21.8253 12.9331 21.8085 13.0372 21.7687C13.1413 21.729 13.2356 21.6674 13.3139 21.5881C13.3921 21.5087 13.4524 21.4135 13.4906 21.3088C13.5288 21.2042 13.5441 21.0925 13.5354 20.9814C13.5267 20.8704 13.4943 20.7624 13.4402 20.665C13.3862 20.5675 13.3119 20.4828 13.2223 20.4166L7.63008 14.7777L22.509 14.7777C22.7152 14.7777 22.9131 14.6958 23.0589 14.5499C23.2048 14.404 23.2867 14.2062 23.2867 13.9999C23.2867 13.7936 23.2048 13.5958 23.0589 13.4499C22.9131 13.3041 22.7152 13.2221 22.509 13.2221L7.63008 13.2221L13.2223 7.58326C13.3677 7.4368 13.449 7.23857 13.4483 7.03217C13.4476 6.82578 13.3649 6.62813 13.2184 6.4827C13.072 6.33727 12.8737 6.25598 12.6673 6.25671C12.4609 6.25744 12.2633 6.34013 12.1179 6.48659L12.1412 6.48659Z" fill="white"/>
</g>
<defs>
<clipPath id="clip0_367_7538">
<rect width="28" height="28" fill="white" transform="translate(0 28) rotate(-90)"/>
</clipPath>
</defs>
</svg>
