<svg width="20" height="20" viewBox="0 0 20 20" fill="none" xmlns="http://www.w3.org/2000/svg">
<g id="ri:search-line">
<path id="Vector" d="M15.0256 13.8473L18.5948 17.4157L17.4156 18.5948L13.8473 15.0257C12.5196 16.09 10.8681 16.6689 9.16644 16.6665C5.02644 16.6665 1.66644 13.3065 1.66644 9.1665C1.66644 5.0265 5.02644 1.6665 9.16644 1.6665C13.3064 1.6665 16.6664 5.0265 16.6664 9.1665C16.6689 10.8682 16.09 12.5196 15.0256 13.8473ZM13.3539 13.229C14.4115 12.1414 15.0022 10.6835 14.9998 9.1665C14.9998 5.944 12.3889 3.33317 9.16644 3.33317C5.94394 3.33317 3.33311 5.944 3.33311 9.1665C3.33311 12.389 5.94394 14.9998 9.16644 14.9998C10.6835 15.0022 12.1413 14.4116 13.2289 13.354L13.3539 13.229Z" fill="white"/>
</g>
</svg>
